<svg width="344" height="345" viewBox="0 0 344 345" fill="none" xmlns="http://www.w3.org/2000/svg">
<path d="M78.7293 85H0V167H122V114.178H78.7293V85Z" fill="#3595F6" fill-opacity="0.75"/>
<path d="M250.5 344L343 344L343 236.5L269.5 236.5L269.5 220.5L221 220.5L221 277L250.5 277L250.5 344Z" fill="#3595F6" fill-opacity="0.75"/>
<path d="M201 231H142V242H122V278H94.5V344H129.5H214.5H250.5V277H221V242H201V231Z" fill="#3595F6" fill-opacity="0.75"/>
<path d="M221 117L221 220.5L269.5 220.5L269.5 236.5L343 236.5L342.5 109.5L312.5 109.5L269.5 109.5L269.5 117L221 117Z" fill="#3595F6" fill-opacity="0.75"/>
<path d="M269.5 109.5H343V0.5L201 0.5V101L221 101V117L269.5 117V109.5Z" fill="#3595F6" fill-opacity="0.75"/>
<path d="M76 246H0V343.5L94.5 344V278H122V221.5H76V246Z" fill="#3595F6" fill-opacity="0.75"/>
<path d="M76.4399 246H0V167H122V221.5H76.4399V246Z" fill="#3595F6" fill-opacity="0.75"/>
<path d="M78.8481 85H0L1.00006 1.49999H46.5001H138V56V64V114H78.8481V85Z" fill="#3595F6" fill-opacity="0.75"/>
</svg>
